<svg width="28" height="28" viewBox="0 0 28 28" fill="none" xmlns="http://www.w3.org/2000/svg">
<path d="M5.83333 10.5001V19.8334M11.0833 10.5001V19.8334M16.9167 10.5001V19.8334M22.1667 10.5001V19.8334M3.5 21.7001L3.5 22.6334C3.5 23.2868 3.5 23.6135 3.62716 23.8631C3.73901 24.0826 3.91749 24.2611 4.13701 24.3729C4.38657 24.5001 4.71327 24.5001 5.36667 24.5001H22.6333C23.2867 24.5001 23.6134 24.5001 23.863 24.3729C24.0825 24.2611 24.261 24.0826 24.3728 23.8631C24.5 23.6135 24.5 23.2868 24.5 22.6334V21.7001C24.5 21.0467 24.5 20.72 24.3728 20.4704C24.261 20.2509 24.0825 20.0724 23.863 19.9606C23.6134 19.8334 23.2867 19.8334 22.6333 19.8334H5.36667C4.71327 19.8334 4.38657 19.8334 4.13701 19.9606C3.91749 20.0724 3.73901 20.2509 3.62716 20.4704C3.5 20.72 3.5 21.0467 3.5 21.7001ZM13.5951 3.59009L4.96173 5.50861C4.44016 5.62451 4.17937 5.68247 3.98471 5.82271C3.81301 5.94641 3.67818 6.11448 3.59467 6.30893C3.5 6.52938 3.5 6.79653 3.5 7.33082L3.5 8.63344C3.5 9.28683 3.5 9.61353 3.62716 9.86309C3.73901 10.0826 3.91749 10.2611 4.13701 10.3729C4.38657 10.5001 4.71327 10.5001 5.36667 10.5001H22.6333C23.2867 10.5001 23.6134 10.5001 23.863 10.3729C24.0825 10.2611 24.261 10.0826 24.3728 9.86309C24.5 9.61353 24.5 9.28683 24.5 8.63344V7.33083C24.5 6.79653 24.5 6.52938 24.4053 6.30893C24.3218 6.11448 24.187 5.94641 24.0153 5.82271C23.8206 5.68247 23.5598 5.62451 23.0383 5.50861L14.4049 3.59009C14.2538 3.55651 14.1783 3.53972 14.1019 3.53302C14.0341 3.52708 13.9659 3.52708 13.8981 3.53302C13.8217 3.53972 13.7462 3.55651 13.5951 3.59009Z" stroke="#266464" stroke-width="2" stroke-linecap="round" stroke-linejoin="round"/>
</svg>
