<svg width="432" height="198" viewBox="0 0 432 198" fill="none" xmlns="http://www.w3.org/2000/svg">
<g filter="url(#filter0_d_3_6325)">
<rect x="56" y="36" width="320" height="86" rx="16" fill="white"/>
</g>
<path d="M281.858 79.172H277.126V74.388H274.474V79.172H269.742V81.798H274.474V86.582H277.126V81.798H281.858V79.172ZM299.148 86.582C296.574 86.582 294.702 85.204 293.844 82.942H299.772L299.954 80.836H293.35C293.324 80.498 293.298 80.134 293.298 79.77C293.298 79.406 293.324 79.042 293.35 78.678H300.162L300.422 76.572H293.844C294.728 74.336 296.6 72.958 299.148 72.958C300.578 72.958 301.878 73.4 302.814 74.18L304.348 71.84C302.918 70.8 301.15 70.228 299.122 70.228C294.91 70.228 291.764 72.75 290.646 76.572H288.904V78.678H290.256C290.23 79.042 290.204 79.406 290.204 79.796C290.204 80.16 290.23 80.498 290.256 80.836H288.904V82.942H290.62C291.738 86.79 294.884 89.338 299.122 89.338C301.15 89.338 302.918 88.766 304.348 87.726L302.814 85.36C301.878 86.14 300.578 86.582 299.148 86.582ZM317.16 78.99C318.382 78.236 319.292 76.884 319.292 75.168C319.292 72.178 316.718 70.228 313.052 70.228C309.412 70.228 306.864 72.178 306.864 75.142C306.864 76.884 307.774 78.236 308.996 78.99C307.332 79.822 306.136 81.642 306.136 83.618C306.136 86.92 308.866 89.26 313.052 89.26C317.29 89.26 319.994 86.868 319.994 83.566C319.994 81.564 318.824 79.796 317.16 78.99ZM313.078 72.464C315.158 72.464 316.51 73.53 316.51 75.22C316.51 76.91 315.158 78.054 313.078 78.054C310.998 78.054 309.62 76.91 309.62 75.22C309.62 73.53 310.998 72.464 313.078 72.464ZM313.078 86.816C310.634 86.816 309.048 85.542 309.048 83.566C309.048 81.59 310.634 80.29 313.078 80.29C315.522 80.29 317.108 81.59 317.108 83.566C317.108 85.542 315.522 86.816 313.078 86.816ZM328.528 89V70.488H325.694L321.534 72.646V75.506L325.694 73.426V89H328.528ZM331.863 89H335.503V85.412H331.863V89ZM344.558 76.39C342.868 76.39 341.724 76.884 340.996 77.56L341.906 73.01H349.992V70.488H339.696L337.85 80.81H340.632C341.152 79.744 342.348 78.756 344.09 78.756C346.352 78.756 347.834 80.368 347.834 82.76C347.834 85.178 346.326 86.79 344.064 86.79C342.062 86.79 340.606 85.62 340.398 83.67H337.59C337.798 87.31 340.736 89.26 344.142 89.26C347.964 89.26 350.824 86.816 350.824 82.734C350.824 78.912 348.25 76.39 344.558 76.39Z" fill="black"/>
<circle cx="105" cy="79" r="27" fill="#F3F4F6"/>
<g clip-path="url(#clip0_3_6325)">
<path d="M105 95C113.837 95 121 87.8366 121 79C121 70.1634 113.837 63 105 63C96.1634 63 89 70.1634 89 79C89 87.8366 96.1634 95 105 95Z" fill="#F0F0F0"/>
<path d="M92.3075 69.2588C91.0507 70.894 90.103 72.7787 89.5512 74.8261H97.8748L92.3075 69.2588Z" fill="#0052B4"/>
<path d="M120.449 74.8262C119.897 72.7788 118.949 70.8941 117.692 69.2589L112.125 74.8262H120.449Z" fill="#0052B4"/>
<path d="M89.5512 83.174C90.1031 85.2213 91.0507 87.106 92.3075 88.7411L97.8746 83.174H89.5512Z" fill="#0052B4"/>
<path d="M114.741 66.3075C113.106 65.0507 111.221 64.103 109.174 63.5511V71.8747L114.741 66.3075Z" fill="#0052B4"/>
<path d="M95.2589 91.6924C96.8941 92.9492 98.7787 93.8969 100.826 94.4487V86.1252L95.2589 91.6924Z" fill="#0052B4"/>
<path d="M100.826 63.5511C98.7787 64.103 96.894 65.0507 95.2589 66.3075L100.826 71.8746V63.5511Z" fill="#0052B4"/>
<path d="M109.174 94.4487C111.221 93.8969 113.106 92.9492 114.741 91.6924L109.174 86.1252V94.4487Z" fill="#0052B4"/>
<path d="M112.125 83.174L117.692 88.7412C118.949 87.1061 119.897 85.2213 120.449 83.174H112.125Z" fill="#0052B4"/>
<path d="M120.865 76.9131H107.087H107.087V63.1354C106.404 63.0465 105.707 63 105 63C104.293 63 103.596 63.0465 102.913 63.1354V76.9129V76.913H89.1354C89.0465 77.5962 89 78.2927 89 79C89 79.7074 89.0465 80.4038 89.1354 81.0869H102.913H102.913V94.8646C103.596 94.9535 104.293 95 105 95C105.707 95 106.404 94.9536 107.087 94.8646V81.0871V81.087H120.865C120.954 80.4038 121 79.7074 121 79C121 78.2927 120.954 77.5962 120.865 76.9131Z" fill="#D80027"/>
<path d="M109.174 83.174L116.314 90.3138C116.642 89.9855 116.955 89.6423 117.254 89.2866L111.142 83.174H109.174V83.174Z" fill="#D80027"/>
<path d="M100.826 83.174H100.826L93.6862 90.3136C94.0145 90.642 94.3577 90.9553 94.7134 91.2541L100.826 85.1414V83.174Z" fill="#D80027"/>
<path d="M100.826 74.8262V74.8261L93.6863 67.6863C93.3579 68.0145 93.0447 68.3577 92.7458 68.7135L98.8585 74.8262H100.826V74.8262Z" fill="#D80027"/>
<path d="M109.174 74.8262L116.314 67.6863C115.985 67.3579 115.642 67.0447 115.287 66.7458L109.174 72.8585V74.8262Z" fill="#D80027"/>
</g>
<rect x="148" y="61" width="93" height="12" rx="6" fill="#EBECF0"/>
<rect x="148" y="85" width="70" height="12" rx="6" fill="#EBECF0"/>
<defs>
<filter id="filter0_d_3_6325" x="0" y="0" width="432" height="198" filterUnits="userSpaceOnUse" color-interpolation-filters="sRGB">
<feFlood flood-opacity="0" result="BackgroundImageFix"/>
<feColorMatrix in="SourceAlpha" type="matrix" values="0 0 0 0 0 0 0 0 0 0 0 0 0 0 0 0 0 0 127 0" result="hardAlpha"/>
<feMorphology radius="4" operator="erode" in="SourceAlpha" result="effect1_dropShadow_3_6325"/>
<feOffset dy="20"/>
<feGaussianBlur stdDeviation="30"/>
<feComposite in2="hardAlpha" operator="out"/>
<feColorMatrix type="matrix" values="0 0 0 0 0 0 0 0 0 0.0666667 0 0 0 0 0.176471 0 0 0 0.08 0"/>
<feBlend mode="normal" in2="BackgroundImageFix" result="effect1_dropShadow_3_6325"/>
<feBlend mode="normal" in="SourceGraphic" in2="effect1_dropShadow_3_6325" result="shape"/>
</filter>
<clipPath id="clip0_3_6325">
<rect width="32" height="32" fill="white" transform="translate(89 63)"/>
</clipPath>
</defs>
</svg>
