<svg width="432" height="198" viewBox="0 0 432 198" fill="none" xmlns="http://www.w3.org/2000/svg">
<g filter="url(#filter0_d_3_6355)">
<rect x="56" y="56" width="320" height="86" rx="16" fill="#266464"/>
</g>
<rect x="56" y="48" width="320" height="86" rx="16" fill="white"/>
<path d="M281.858 91.172H277.126V86.388H274.474V91.172H269.742V93.798H274.474V98.582H277.126V93.798H281.858V91.172ZM303.698 95.826C303.698 93.07 301.982 91.302 298.992 90.652L296.08 90.028C294.078 89.586 293.142 88.858 293.142 87.35C293.142 85.634 294.52 84.698 296.678 84.698C299.07 84.698 300.552 85.712 300.552 87.714H303.334C303.334 84.36 300.916 82.618 297.848 82.28V80.07H295.508V82.306C292.232 82.722 290.178 84.776 290.178 87.558C290.178 90.548 292.31 92.108 294.832 92.628L297.77 93.278C299.772 93.694 300.734 94.37 300.734 95.956C300.734 97.802 299.07 98.738 296.86 98.738C294.026 98.738 292.648 97.516 292.648 95.748H289.84C289.84 98.712 291.946 100.766 295.508 101.182V103.418H297.848V101.208C301.176 100.896 303.698 98.946 303.698 95.826ZM315.837 91.458C317.605 90.652 318.567 89.118 318.567 87.35C318.567 84.126 316.045 82.228 312.379 82.228C308.271 82.228 305.879 84.594 305.879 88.13H308.661C308.635 85.868 310.091 84.672 312.301 84.672C314.277 84.672 315.577 85.686 315.577 87.48C315.577 89.248 314.407 90.366 312.197 90.366H310.871V92.732H312.301C314.693 92.732 315.941 93.902 315.941 95.748C315.941 97.568 314.589 98.79 312.327 98.79C310.117 98.79 308.661 97.568 308.661 95.332H305.801C305.801 98.868 308.323 101.26 312.431 101.26C316.357 101.26 319.009 99.206 319.009 95.852C319.009 93.798 317.865 92.082 315.837 91.458ZM328.89 82.228C333.83 82.228 336.638 86.076 336.638 91.744C336.638 97.386 333.83 101.26 328.89 101.26C323.95 101.26 321.246 97.386 321.246 91.744C321.246 86.076 323.95 82.228 328.89 82.228ZM333.7 91.744C333.7 87.454 332.01 84.75 328.89 84.75C325.77 84.75 324.158 87.454 324.158 91.744C324.158 96.034 325.77 98.738 328.89 98.738C332.01 98.738 333.7 96.034 333.7 91.744ZM338.389 101H342.029V97.412H338.389V101ZM349.095 101V82.488H346.261L342.101 84.646V87.506L346.261 85.426V101H349.095Z" fill="black"/>
<circle cx="105" cy="91" r="27" fill="#F3F4F6"/>
<g clip-path="url(#clip0_3_6355)">
<path d="M105 107C113.837 107 121 99.8366 121 91C121 82.1634 113.837 75 105 75C96.1634 75 89 82.1634 89 91C89 99.8366 96.1634 107 105 107Z" fill="white"/>
<path d="M89 91.0001C89 82.1635 96.1635 75 105 75C113.837 75 121 82.1635 121 91.0001" fill="#D80027"/>
<path d="M98.7391 83.3478C98.7391 81.0166 100.377 79.0693 102.565 78.5915C102.229 78.5181 101.88 78.4783 101.522 78.4783C98.8323 78.4783 96.6521 80.6584 96.6521 83.3478C96.6521 86.0373 98.8323 88.2174 101.522 88.2174C101.88 88.2174 102.229 88.1776 102.565 88.1041C100.377 87.6263 98.7391 85.679 98.7391 83.3478Z" fill="#F0F0F0"/>
<path d="M105 78.826L105.345 79.8889H106.463L105.559 80.5458L105.904 81.6086L105 80.9518L104.096 81.6086L104.441 80.5458L103.537 79.8889H104.655L105 78.826Z" fill="#F0F0F0"/>
<path d="M102.289 80.913L102.634 81.9758H103.752L102.848 82.6327L103.193 83.6955L102.289 83.0387L101.385 83.6955L101.73 82.6327L100.826 81.9758H101.944L102.289 80.913Z" fill="#F0F0F0"/>
<path d="M107.711 80.913L108.056 81.9758H109.174L108.269 82.6327L108.615 83.6955L107.711 83.0387L106.807 83.6955L107.152 82.6327L106.248 81.9758H107.365L107.711 80.913Z" fill="#F0F0F0"/>
<path d="M106.668 84.0435L107.013 85.1063H108.13L107.226 85.7632L107.572 86.826L106.668 86.1692L105.763 86.826L106.109 85.7632L105.205 85.1063H106.322L106.668 84.0435Z" fill="#F0F0F0"/>
<path d="M103.333 84.0435L103.678 85.1063H104.796L103.892 85.7632L104.237 86.826L103.333 86.1692L102.429 86.826L102.774 85.7632L101.87 85.1063H102.987L103.333 84.0435Z" fill="#F0F0F0"/>
</g>
<rect x="148" y="73" width="93" height="12" rx="6" fill="#EBECF0"/>
<rect x="148" y="97" width="70" height="12" rx="6" fill="#EBECF0"/>
<defs>
<filter id="filter0_d_3_6355" x="0" y="0" width="432" height="198" filterUnits="userSpaceOnUse" color-interpolation-filters="sRGB">
<feFlood flood-opacity="0" result="BackgroundImageFix"/>
<feColorMatrix in="SourceAlpha" type="matrix" values="0 0 0 0 0 0 0 0 0 0 0 0 0 0 0 0 0 0 127 0" result="hardAlpha"/>
<feMorphology radius="4" operator="erode" in="SourceAlpha" result="effect1_dropShadow_3_6355"/>
<feOffset/>
<feGaussianBlur stdDeviation="30"/>
<feComposite in2="hardAlpha" operator="out"/>
<feColorMatrix type="matrix" values="0 0 0 0 0 0 0 0 0 0.0666667 0 0 0 0 0.176471 0 0 0 0.08 0"/>
<feBlend mode="normal" in2="BackgroundImageFix" result="effect1_dropShadow_3_6355"/>
<feBlend mode="normal" in="SourceGraphic" in2="effect1_dropShadow_3_6355" result="shape"/>
</filter>
<clipPath id="clip0_3_6355">
<rect width="32" height="32" fill="white" transform="translate(89 75)"/>
</clipPath>
</defs>
</svg>
