<svg width="432" height="198" viewBox="0 0 432 198" fill="none" xmlns="http://www.w3.org/2000/svg">
<g filter="url(#filter0_d_3_6340)">
<rect x="56" y="36" width="320" height="86" rx="16" fill="white"/>
</g>
<path d="M272.858 79.172H268.126V74.388H265.474V79.172H260.742V81.798H265.474V86.582H268.126V81.798H272.858V79.172ZM290.148 86.582C287.574 86.582 285.702 85.204 284.844 82.942H290.772L290.954 80.836H284.35C284.324 80.498 284.298 80.134 284.298 79.77C284.298 79.406 284.324 79.042 284.35 78.678H291.162L291.422 76.572H284.844C285.728 74.336 287.6 72.958 290.148 72.958C291.578 72.958 292.878 73.4 293.814 74.18L295.348 71.84C293.918 70.8 292.15 70.228 290.122 70.228C285.91 70.228 282.764 72.75 281.646 76.572H279.904V78.678H281.256C281.23 79.042 281.204 79.406 281.204 79.796C281.204 80.16 281.23 80.498 281.256 80.836H279.904V82.942H281.62C282.738 86.79 285.884 89.338 290.122 89.338C292.15 89.338 293.918 88.766 295.348 87.726L293.814 85.36C292.878 86.14 291.578 86.582 290.148 86.582ZM305.482 89H308.394V85.386H310.994V82.812H308.394V70.488H305.274L296.668 82.838V85.386H305.482V89ZM299.632 82.812L305.482 74.518V82.812H299.632ZM320.296 70.228C325.236 70.228 328.044 74.076 328.044 79.744C328.044 85.386 325.236 89.26 320.296 89.26C315.356 89.26 312.652 85.386 312.652 79.744C312.652 74.076 315.356 70.228 320.296 70.228ZM325.106 79.744C325.106 75.454 323.416 72.75 320.296 72.75C317.176 72.75 315.564 75.454 315.564 79.744C315.564 84.034 317.176 86.738 320.296 86.738C323.416 86.738 325.106 84.034 325.106 79.744ZM329.795 89H333.435V85.412H329.795V89ZM342.868 70.228C347.808 70.228 350.616 74.076 350.616 79.744C350.616 85.386 347.808 89.26 342.868 89.26C337.928 89.26 335.224 85.386 335.224 79.744C335.224 74.076 337.928 70.228 342.868 70.228ZM347.678 79.744C347.678 75.454 345.988 72.75 342.868 72.75C339.748 72.75 338.136 75.454 338.136 79.744C338.136 84.034 339.748 86.738 342.868 86.738C345.988 86.738 347.678 84.034 347.678 79.744Z" fill="black"/>
<circle cx="105" cy="79" r="27" fill="#F3F4F6"/>
<g clip-path="url(#clip0_3_6340)">
<path d="M89.9952 84.5652C92.2559 90.6579 98.1206 95 105 95C111.879 95 117.744 90.6579 120.005 84.5652L105 83.174L89.9952 84.5652Z" fill="#FFDA44"/>
<path d="M105 63C98.1206 63 92.2559 67.342 89.9952 73.4348L105 74.8261L120.005 73.4347C117.744 67.342 111.879 63 105 63Z" fill="black"/>
<path d="M89.9952 73.4348C89.3521 75.1681 89 77.0429 89 79C89 80.9571 89.3521 82.8319 89.9952 84.5652H120.005C120.648 82.8319 121 80.9571 121 79C121 77.0429 120.648 75.1681 120.005 73.4348H89.9952Z" fill="#D80027"/>
</g>
<rect x="148" y="61" width="93" height="12" rx="6" fill="#EBECF0"/>
<rect x="148" y="85" width="70" height="12" rx="6" fill="#EBECF0"/>
<defs>
<filter id="filter0_d_3_6340" x="0" y="0" width="432" height="198" filterUnits="userSpaceOnUse" color-interpolation-filters="sRGB">
<feFlood flood-opacity="0" result="BackgroundImageFix"/>
<feColorMatrix in="SourceAlpha" type="matrix" values="0 0 0 0 0 0 0 0 0 0 0 0 0 0 0 0 0 0 127 0" result="hardAlpha"/>
<feMorphology radius="4" operator="erode" in="SourceAlpha" result="effect1_dropShadow_3_6340"/>
<feOffset dy="20"/>
<feGaussianBlur stdDeviation="30"/>
<feComposite in2="hardAlpha" operator="out"/>
<feColorMatrix type="matrix" values="0 0 0 0 0 0 0 0 0 0.0666667 0 0 0 0 0.176471 0 0 0 0.08 0"/>
<feBlend mode="normal" in2="BackgroundImageFix" result="effect1_dropShadow_3_6340"/>
<feBlend mode="normal" in="SourceGraphic" in2="effect1_dropShadow_3_6340" result="shape"/>
</filter>
<clipPath id="clip0_3_6340">
<rect width="32" height="32" fill="white" transform="translate(89 63)"/>
</clipPath>
</defs>
</svg>
