<svg width="665" height="475" viewBox="0 0 665 475" fill="none" xmlns="http://www.w3.org/2000/svg">
<g clip-path="url(#clip0_3_6317)">
<rect x="95" width="473" height="440" rx="24" fill="#E0F1DF"/>
<circle cx="68.9343" cy="419.934" r="118.934" stroke="white" stroke-width="2"/>
<circle cx="108.467" cy="367.467" r="185.467" stroke="white" stroke-width="2"/>
<circle cx="144" cy="312" r="252" stroke="white" stroke-width="2"/>
</g>
<g filter="url(#filter0_d_3_6317)">
<rect x="213" y="41" width="320" height="86" rx="16" fill="white"/>
</g>
<path d="M438.858 84.172H434.126V79.388H431.474V84.172H426.742V86.798H431.474V91.582H434.126V86.798H438.858V84.172ZM456.148 91.582C453.574 91.582 451.702 90.204 450.844 87.942H456.772L456.954 85.836H450.35C450.324 85.498 450.298 85.134 450.298 84.77C450.298 84.406 450.324 84.042 450.35 83.678H457.162L457.422 81.572H450.844C451.728 79.336 453.6 77.958 456.148 77.958C457.578 77.958 458.878 78.4 459.814 79.18L461.348 76.84C459.918 75.8 458.15 75.228 456.122 75.228C451.91 75.228 448.764 77.75 447.646 81.572H445.904V83.678H447.256C447.23 84.042 447.204 84.406 447.204 84.796C447.204 85.16 447.23 85.498 447.256 85.836H445.904V87.942H447.62C448.738 91.79 451.884 94.338 456.122 94.338C458.15 94.338 459.918 93.766 461.348 92.726L459.814 90.36C458.878 91.14 457.578 91.582 456.148 91.582ZM474.16 83.99C475.382 83.236 476.292 81.884 476.292 80.168C476.292 77.178 473.718 75.228 470.052 75.228C466.412 75.228 463.864 77.178 463.864 80.142C463.864 81.884 464.774 83.236 465.996 83.99C464.332 84.822 463.136 86.642 463.136 88.618C463.136 91.92 465.866 94.26 470.052 94.26C474.29 94.26 476.994 91.868 476.994 88.566C476.994 86.564 475.824 84.796 474.16 83.99ZM470.078 77.464C472.158 77.464 473.51 78.53 473.51 80.22C473.51 81.91 472.158 83.054 470.078 83.054C467.998 83.054 466.62 81.91 466.62 80.22C466.62 78.53 467.998 77.464 470.078 77.464ZM470.078 91.816C467.634 91.816 466.048 90.542 466.048 88.566C466.048 86.59 467.634 85.29 470.078 85.29C472.522 85.29 474.108 86.59 474.108 88.566C474.108 90.542 472.522 91.816 470.078 91.816ZM485.528 94V75.488H482.694L478.534 77.646V80.506L482.694 78.426V94H485.528ZM488.863 94H492.503V90.412H488.863V94ZM501.558 81.39C499.868 81.39 498.724 81.884 497.996 82.56L498.906 78.01H506.992V75.488H496.696L494.85 85.81H497.632C498.152 84.744 499.348 83.756 501.09 83.756C503.352 83.756 504.834 85.368 504.834 87.76C504.834 90.178 503.326 91.79 501.064 91.79C499.062 91.79 497.606 90.62 497.398 88.67H494.59C494.798 92.31 497.736 94.26 501.142 94.26C504.964 94.26 507.824 91.816 507.824 87.734C507.824 83.912 505.25 81.39 501.558 81.39Z" fill="black"/>
<circle cx="262" cy="84" r="27" fill="#F3F4F6"/>
<g clip-path="url(#clip1_3_6317)">
<path d="M262 100C270.837 100 278 92.8366 278 84C278 75.1634 270.837 68 262 68C253.163 68 246 75.1634 246 84C246 92.8366 253.163 100 262 100Z" fill="#F0F0F0"/>
<path d="M249.307 74.2588C248.051 75.894 247.103 77.7787 246.551 79.8261H254.875L249.307 74.2588Z" fill="#0052B4"/>
<path d="M277.449 79.8262C276.897 77.7788 275.949 75.8941 274.692 74.2589L269.125 79.8262H277.449Z" fill="#0052B4"/>
<path d="M246.551 88.174C247.103 90.2213 248.051 92.106 249.307 93.7411L254.875 88.174H246.551Z" fill="#0052B4"/>
<path d="M271.741 71.3075C270.106 70.0507 268.221 69.103 266.174 68.5511V76.8747L271.741 71.3075Z" fill="#0052B4"/>
<path d="M252.259 96.6924C253.894 97.9492 255.779 98.8969 257.826 99.4487V91.1252L252.259 96.6924Z" fill="#0052B4"/>
<path d="M257.826 68.5511C255.779 69.103 253.894 70.0507 252.259 71.3075L257.826 76.8746V68.5511Z" fill="#0052B4"/>
<path d="M266.174 99.4487C268.221 98.8969 270.106 97.9492 271.741 96.6924L266.174 91.1252V99.4487Z" fill="#0052B4"/>
<path d="M269.125 88.174L274.692 93.7412C275.949 92.1061 276.897 90.2213 277.449 88.174H269.125Z" fill="#0052B4"/>
<path d="M277.865 81.9131H264.087H264.087V68.1354C263.404 68.0465 262.707 68 262 68C261.293 68 260.596 68.0465 259.913 68.1354V81.9129V81.913H246.135C246.047 82.5962 246 83.2927 246 84C246 84.7074 246.047 85.4038 246.135 86.0869H259.913H259.913V99.8646C260.596 99.9535 261.293 100 262 100C262.707 100 263.404 99.9536 264.087 99.8646V86.0871V86.087H277.865C277.954 85.4038 278 84.7074 278 84C278 83.2927 277.954 82.5962 277.865 81.9131Z" fill="#D80027"/>
<path d="M266.174 88.174L273.314 95.3138C273.642 94.9855 273.955 94.6423 274.254 94.2866L268.142 88.174H266.174V88.174Z" fill="#D80027"/>
<path d="M257.826 88.174H257.826L250.686 95.3136C251.014 95.642 251.358 95.9553 251.713 96.2541L257.826 90.1414V88.174Z" fill="#D80027"/>
<path d="M257.826 79.8262V79.8261L250.686 72.6863C250.358 73.0145 250.045 73.3577 249.746 73.7135L255.858 79.8262H257.826V79.8262Z" fill="#D80027"/>
<path d="M266.174 79.8262L273.314 72.6863C272.985 72.3579 272.642 72.0447 272.287 71.7458L266.174 77.8585V79.8262Z" fill="#D80027"/>
</g>
<rect x="305" y="66" width="93" height="12" rx="6" fill="#EBECF0"/>
<rect x="305" y="90" width="70" height="12" rx="6" fill="#EBECF0"/>
<g filter="url(#filter1_d_3_6317)">
<rect x="289" y="313" width="320" height="86" rx="16" fill="white"/>
</g>
<path d="M505.858 356.172H501.126V351.388H498.474V356.172H493.742V358.798H498.474V363.582H501.126V358.798H505.858V356.172ZM523.148 363.582C520.574 363.582 518.702 362.204 517.844 359.942H523.772L523.954 357.836H517.35C517.324 357.498 517.298 357.134 517.298 356.77C517.298 356.406 517.324 356.042 517.35 355.678H524.162L524.422 353.572H517.844C518.728 351.336 520.6 349.958 523.148 349.958C524.578 349.958 525.878 350.4 526.814 351.18L528.348 348.84C526.918 347.8 525.15 347.228 523.122 347.228C518.91 347.228 515.764 349.75 514.646 353.572H512.904V355.678H514.256C514.23 356.042 514.204 356.406 514.204 356.796C514.204 357.16 514.23 357.498 514.256 357.836H512.904V359.942H514.62C515.738 363.79 518.884 366.338 523.122 366.338C525.15 366.338 526.918 365.766 528.348 364.726L526.814 362.36C525.878 363.14 524.578 363.582 523.148 363.582ZM538.482 366H541.394V362.386H543.994V359.812H541.394V347.488H538.274L529.668 359.838V362.386H538.482V366ZM532.632 359.812L538.482 351.518V359.812H532.632ZM553.296 347.228C558.236 347.228 561.044 351.076 561.044 356.744C561.044 362.386 558.236 366.26 553.296 366.26C548.356 366.26 545.652 362.386 545.652 356.744C545.652 351.076 548.356 347.228 553.296 347.228ZM558.106 356.744C558.106 352.454 556.416 349.75 553.296 349.75C550.176 349.75 548.564 352.454 548.564 356.744C548.564 361.034 550.176 363.738 553.296 363.738C556.416 363.738 558.106 361.034 558.106 356.744ZM562.795 366H566.435V362.412H562.795V366ZM575.868 347.228C580.808 347.228 583.616 351.076 583.616 356.744C583.616 362.386 580.808 366.26 575.868 366.26C570.928 366.26 568.224 362.386 568.224 356.744C568.224 351.076 570.928 347.228 575.868 347.228ZM580.678 356.744C580.678 352.454 578.988 349.75 575.868 349.75C572.748 349.75 571.136 352.454 571.136 356.744C571.136 361.034 572.748 363.738 575.868 363.738C578.988 363.738 580.678 361.034 580.678 356.744Z" fill="black"/>
<circle cx="338" cy="356" r="27" fill="#F3F4F6"/>
<g clip-path="url(#clip2_3_6317)">
<path d="M322.995 361.565C325.256 367.658 331.121 372 338 372C344.879 372 350.744 367.658 353.005 361.565L338 360.174L322.995 361.565Z" fill="#FFDA44"/>
<path d="M338 340C331.121 340 325.256 344.342 322.995 350.435L338 351.826L353.005 350.435C350.744 344.342 344.879 340 338 340Z" fill="black"/>
<path d="M322.995 350.435C322.352 352.168 322 354.043 322 356C322 357.957 322.352 359.832 322.995 361.565H353.005C353.648 359.832 354 357.957 354 356C354 354.043 353.648 352.168 353.005 350.435H322.995Z" fill="#D80027"/>
</g>
<rect x="381" y="338" width="93" height="12" rx="6" fill="#EBECF0"/>
<rect x="381" y="362" width="70" height="12" rx="6" fill="#EBECF0"/>
<g filter="url(#filter2_d_3_6317)">
<rect x="56" y="181" width="320" height="86" rx="16" fill="#266464"/>
</g>
<rect x="56" y="173" width="320" height="86" rx="16" fill="white"/>
<path d="M281.858 216.172H277.126V211.388H274.474V216.172H269.742V218.798H274.474V223.582H277.126V218.798H281.858V216.172ZM303.698 220.826C303.698 218.07 301.982 216.302 298.992 215.652L296.08 215.028C294.078 214.586 293.142 213.858 293.142 212.35C293.142 210.634 294.52 209.698 296.678 209.698C299.07 209.698 300.552 210.712 300.552 212.714H303.334C303.334 209.36 300.916 207.618 297.848 207.28V205.07H295.508V207.306C292.232 207.722 290.178 209.776 290.178 212.558C290.178 215.548 292.31 217.108 294.832 217.628L297.77 218.278C299.772 218.694 300.734 219.37 300.734 220.956C300.734 222.802 299.07 223.738 296.86 223.738C294.026 223.738 292.648 222.516 292.648 220.748H289.84C289.84 223.712 291.946 225.766 295.508 226.182V228.418H297.848V226.208C301.176 225.896 303.698 223.946 303.698 220.826ZM315.837 216.458C317.605 215.652 318.567 214.118 318.567 212.35C318.567 209.126 316.045 207.228 312.379 207.228C308.271 207.228 305.879 209.594 305.879 213.13H308.661C308.635 210.868 310.091 209.672 312.301 209.672C314.277 209.672 315.577 210.686 315.577 212.48C315.577 214.248 314.407 215.366 312.197 215.366H310.871V217.732H312.301C314.693 217.732 315.941 218.902 315.941 220.748C315.941 222.568 314.589 223.79 312.327 223.79C310.117 223.79 308.661 222.568 308.661 220.332H305.801C305.801 223.868 308.323 226.26 312.431 226.26C316.357 226.26 319.009 224.206 319.009 220.852C319.009 218.798 317.865 217.082 315.837 216.458ZM328.89 207.228C333.83 207.228 336.638 211.076 336.638 216.744C336.638 222.386 333.83 226.26 328.89 226.26C323.95 226.26 321.246 222.386 321.246 216.744C321.246 211.076 323.95 207.228 328.89 207.228ZM333.7 216.744C333.7 212.454 332.01 209.75 328.89 209.75C325.77 209.75 324.158 212.454 324.158 216.744C324.158 221.034 325.77 223.738 328.89 223.738C332.01 223.738 333.7 221.034 333.7 216.744ZM338.389 226H342.029V222.412H338.389V226ZM349.095 226V207.488H346.261L342.101 209.646V212.506L346.261 210.426V226H349.095Z" fill="black"/>
<circle cx="105" cy="216" r="27" fill="#F3F4F6"/>
<g clip-path="url(#clip3_3_6317)">
<path d="M105 232C113.837 232 121 224.837 121 216C121 207.163 113.837 200 105 200C96.1634 200 89 207.163 89 216C89 224.837 96.1634 232 105 232Z" fill="white"/>
<path d="M89 216C89 207.164 96.1635 200 105 200C113.837 200 121 207.164 121 216" fill="#D80027"/>
<path d="M98.7391 208.348C98.7391 206.017 100.377 204.069 102.565 203.591C102.229 203.518 101.88 203.478 101.522 203.478C98.8323 203.478 96.6521 205.658 96.6521 208.348C96.6521 211.037 98.8323 213.217 101.522 213.217C101.88 213.217 102.229 213.178 102.565 213.104C100.377 212.626 98.7391 210.679 98.7391 208.348Z" fill="#F0F0F0"/>
<path d="M105 203.826L105.345 204.889H106.463L105.559 205.546L105.904 206.609L105 205.952L104.096 206.609L104.441 205.546L103.537 204.889H104.655L105 203.826Z" fill="#F0F0F0"/>
<path d="M102.289 205.913L102.634 206.976H103.752L102.848 207.633L103.193 208.696L102.289 208.039L101.385 208.696L101.73 207.633L100.826 206.976H101.944L102.289 205.913Z" fill="#F0F0F0"/>
<path d="M107.711 205.913L108.056 206.976H109.174L108.269 207.633L108.615 208.696L107.711 208.039L106.807 208.696L107.152 207.633L106.248 206.976H107.365L107.711 205.913Z" fill="#F0F0F0"/>
<path d="M106.668 209.043L107.013 210.106H108.13L107.226 210.763L107.572 211.826L106.668 211.169L105.763 211.826L106.109 210.763L105.205 210.106H106.322L106.668 209.043Z" fill="#F0F0F0"/>
<path d="M103.333 209.043L103.678 210.106H104.796L103.892 210.763L104.237 211.826L103.333 211.169L102.429 211.826L102.774 210.763L101.87 210.106H102.987L103.333 209.043Z" fill="#F0F0F0"/>
</g>
<rect x="148" y="198" width="93" height="12" rx="6" fill="#EBECF0"/>
<rect x="148" y="222" width="70" height="12" rx="6" fill="#EBECF0"/>
<defs>
<filter id="filter0_d_3_6317" x="157" y="5" width="432" height="198" filterUnits="userSpaceOnUse" color-interpolation-filters="sRGB">
<feFlood flood-opacity="0" result="BackgroundImageFix"/>
<feColorMatrix in="SourceAlpha" type="matrix" values="0 0 0 0 0 0 0 0 0 0 0 0 0 0 0 0 0 0 127 0" result="hardAlpha"/>
<feMorphology radius="4" operator="erode" in="SourceAlpha" result="effect1_dropShadow_3_6317"/>
<feOffset dy="20"/>
<feGaussianBlur stdDeviation="30"/>
<feComposite in2="hardAlpha" operator="out"/>
<feColorMatrix type="matrix" values="0 0 0 0 0 0 0 0 0 0.0666667 0 0 0 0 0.176471 0 0 0 0.08 0"/>
<feBlend mode="normal" in2="BackgroundImageFix" result="effect1_dropShadow_3_6317"/>
<feBlend mode="normal" in="SourceGraphic" in2="effect1_dropShadow_3_6317" result="shape"/>
</filter>
<filter id="filter1_d_3_6317" x="233" y="277" width="432" height="198" filterUnits="userSpaceOnUse" color-interpolation-filters="sRGB">
<feFlood flood-opacity="0" result="BackgroundImageFix"/>
<feColorMatrix in="SourceAlpha" type="matrix" values="0 0 0 0 0 0 0 0 0 0 0 0 0 0 0 0 0 0 127 0" result="hardAlpha"/>
<feMorphology radius="4" operator="erode" in="SourceAlpha" result="effect1_dropShadow_3_6317"/>
<feOffset dy="20"/>
<feGaussianBlur stdDeviation="30"/>
<feComposite in2="hardAlpha" operator="out"/>
<feColorMatrix type="matrix" values="0 0 0 0 0 0 0 0 0 0.0666667 0 0 0 0 0.176471 0 0 0 0.08 0"/>
<feBlend mode="normal" in2="BackgroundImageFix" result="effect1_dropShadow_3_6317"/>
<feBlend mode="normal" in="SourceGraphic" in2="effect1_dropShadow_3_6317" result="shape"/>
</filter>
<filter id="filter2_d_3_6317" x="0" y="125" width="432" height="198" filterUnits="userSpaceOnUse" color-interpolation-filters="sRGB">
<feFlood flood-opacity="0" result="BackgroundImageFix"/>
<feColorMatrix in="SourceAlpha" type="matrix" values="0 0 0 0 0 0 0 0 0 0 0 0 0 0 0 0 0 0 127 0" result="hardAlpha"/>
<feMorphology radius="4" operator="erode" in="SourceAlpha" result="effect1_dropShadow_3_6317"/>
<feOffset/>
<feGaussianBlur stdDeviation="30"/>
<feComposite in2="hardAlpha" operator="out"/>
<feColorMatrix type="matrix" values="0 0 0 0 0 0 0 0 0 0.0666667 0 0 0 0 0.176471 0 0 0 0.08 0"/>
<feBlend mode="normal" in2="BackgroundImageFix" result="effect1_dropShadow_3_6317"/>
<feBlend mode="normal" in="SourceGraphic" in2="effect1_dropShadow_3_6317" result="shape"/>
</filter>
<clipPath id="clip0_3_6317">
<rect width="473" height="440" fill="white" transform="translate(95)"/>
</clipPath>
<clipPath id="clip1_3_6317">
<rect width="32" height="32" fill="white" transform="translate(246 68)"/>
</clipPath>
<clipPath id="clip2_3_6317">
<rect width="32" height="32" fill="white" transform="translate(322 340)"/>
</clipPath>
<clipPath id="clip3_3_6317">
<rect width="32" height="32" fill="white" transform="translate(89 200)"/>
</clipPath>
</defs>
</svg>
