<svg width="127" height="44" viewBox="0 0 127 44" fill="none" xmlns="http://www.w3.org/2000/svg">
<path d="M1.99991 16.9413L4.87185 14.0694C8.04411 10.8971 13.1874 10.8971 16.3596 14.0694L30.6702 28.38L27.7983 31.2519C24.626 34.4242 19.4827 34.4242 16.3105 31.2519L1.99991 16.9413Z" fill="#1D6363"/>
<path d="M28.0609 13.244C31.2331 10.0717 36.3764 10.0717 39.5486 13.244L42.4206 16.1159L31.9051 26.6314L23.2893 18.0156L28.0609 13.244Z" fill="#1D6363"/>
<path d="M54.048 10.6V33H57.728V23.528H66.496V20.36H57.728V13.864H68.352V10.6H54.048ZM73.733 10.664C73.317 10.28 72.805 10.056 72.229 10.056C71.621 10.056 71.109 10.28 70.725 10.664C70.309 11.048 70.117 11.56 70.117 12.136C70.117 12.744 70.309 13.256 70.725 13.64C71.109 14.024 71.621 14.216 72.229 14.216C72.805 14.216 73.317 14.024 73.733 13.64C74.117 13.256 74.341 12.744 74.341 12.136C74.341 11.56 74.117 11.048 73.733 10.664ZM70.501 16.616V33H73.957V16.616H70.501ZM90.4008 18.216C89.1848 17.032 87.5848 16.424 85.6648 16.424C83.3928 16.424 81.6328 17.224 80.4168 18.76L80.0328 16.616H77.0248V33H80.4808V24.744C80.4808 23.08 80.8648 21.8 81.6328 20.84C82.4008 19.88 83.4888 19.4 84.8648 19.4C86.1448 19.4 87.1048 19.816 87.7768 20.616C88.4168 21.448 88.7688 22.632 88.7688 24.168V33H92.2568V23.976C92.2568 21.352 91.6168 19.432 90.4008 18.216ZM94.4718 16.616V19.656H103.24L94.0878 30.536V33H108.296V29.96H98.7278L107.88 19.08V16.616H94.4718ZM112.995 32.168C114.275 32.872 115.715 33.192 117.379 33.192C119.011 33.192 120.451 32.872 121.731 32.168C123.011 31.464 123.971 30.504 124.675 29.224C125.379 27.944 125.731 26.472 125.731 24.808C125.731 23.176 125.379 21.736 124.675 20.456C123.971 19.176 123.011 18.184 121.731 17.48C120.451 16.776 119.011 16.424 117.379 16.424C115.715 16.424 114.275 16.776 112.995 17.48C111.715 18.184 110.755 19.176 110.051 20.456C109.347 21.736 109.027 23.176 109.027 24.808C109.027 26.472 109.347 27.944 110.051 29.224C110.755 30.504 111.715 31.464 112.995 32.168ZM120.867 28.744C119.971 29.768 118.819 30.248 117.379 30.248C115.907 30.248 114.755 29.768 113.891 28.744C112.995 27.72 112.579 26.408 112.579 24.808C112.579 23.208 112.995 21.928 113.891 20.904C114.755 19.88 115.907 19.368 117.379 19.368C118.819 19.368 119.971 19.88 120.867 20.904C121.763 21.928 122.211 23.208 122.211 24.808C122.211 26.408 121.763 27.72 120.867 28.744Z" fill="#000C1F"/>
</svg>
