<svg width="108" height="36" viewBox="0 0 108 36" fill="none" xmlns="http://www.w3.org/2000/svg">
<path d="M1.63574 13.8608L3.98552 11.5111C6.581 8.91558 10.7891 8.91558 13.3846 11.5111L25.0932 23.2197L22.7435 25.5695C20.148 28.165 15.9399 28.165 13.3444 25.5695L1.63574 13.8608Z" fill="white"/>
<path d="M22.9587 10.8358C25.5542 8.24034 29.7623 8.24034 32.3578 10.8358L34.7076 13.1856L26.104 21.7892L19.0547 14.7399L22.9587 10.8358Z" fill="white"/>
<path d="M43.792 8.4V28H47.012V19.712H54.684V16.94H47.012V11.256H56.308V8.4H43.792ZM61.0164 8.456C60.6524 8.12 60.2044 7.924 59.7004 7.924C59.1684 7.924 58.7204 8.12 58.3844 8.456C58.0204 8.792 57.8524 9.24 57.8524 9.744C57.8524 10.276 58.0204 10.724 58.3844 11.06C58.7204 11.396 59.1684 11.564 59.7004 11.564C60.2044 11.564 60.6524 11.396 61.0164 11.06C61.3524 10.724 61.5484 10.276 61.5484 9.744C61.5484 9.24 61.3524 8.792 61.0164 8.456ZM58.1884 13.664V28H61.2124V13.664H58.1884ZM75.6007 15.064C74.5367 14.028 73.1367 13.496 71.4567 13.496C69.4687 13.496 67.9287 14.196 66.8647 15.54L66.5287 13.664H63.8967V28H66.9207V20.776C66.9207 19.32 67.2567 18.2 67.9287 17.36C68.6007 16.52 69.5527 16.1 70.7567 16.1C71.8767 16.1 72.7167 16.464 73.3047 17.164C73.8647 17.892 74.1727 18.928 74.1727 20.272V28H77.2247V20.104C77.2247 17.808 76.6647 16.128 75.6007 15.064ZM79.1628 13.664V16.324H86.8348L78.8268 25.844V28H91.2588V25.34H82.8868L90.8948 15.82V13.664H79.1628ZM95.3704 27.272C96.4904 27.888 97.7504 28.168 99.2064 28.168C100.634 28.168 101.894 27.888 103.014 27.272C104.134 26.656 104.974 25.816 105.59 24.696C106.206 23.576 106.514 22.288 106.514 20.832C106.514 19.404 106.206 18.144 105.59 17.024C104.974 15.904 104.134 15.036 103.014 14.42C101.894 13.804 100.634 13.496 99.2064 13.496C97.7504 13.496 96.4904 13.804 95.3704 14.42C94.2504 15.036 93.4104 15.904 92.7944 17.024C92.1784 18.144 91.8984 19.404 91.8984 20.832C91.8984 22.288 92.1784 23.576 92.7944 24.696C93.4104 25.816 94.2504 26.656 95.3704 27.272ZM102.258 24.276C101.474 25.172 100.466 25.592 99.2064 25.592C97.9184 25.592 96.9104 25.172 96.1544 24.276C95.3704 23.38 95.0064 22.232 95.0064 20.832C95.0064 19.432 95.3704 18.312 96.1544 17.416C96.9104 16.52 97.9184 16.072 99.2064 16.072C100.466 16.072 101.474 16.52 102.258 17.416C103.042 18.312 103.434 19.432 103.434 20.832C103.434 22.232 103.042 23.38 102.258 24.276Z" fill="white"/>
</svg>
