<svg width="114" height="28" viewBox="0 0 114 28" fill="none" xmlns="http://www.w3.org/2000/svg">
<g clip-path="url(#clip0_3_6238)">
<path d="M80.9547 10.8888C79.299 10.8888 78.0918 11.4764 77.5054 12.548L77.195 13.1357V11.1653H74.4701V23.0912H77.333V16.0048C77.333 14.311 78.2643 13.3431 79.8509 13.3431C81.3686 13.3431 82.2654 14.2764 82.2654 15.9357V23.0912H85.1282V15.4172C85.1282 12.5826 83.5761 10.8888 80.9547 10.8888ZM67.0888 10.8888C63.7086 10.8888 61.6391 12.9974 61.6391 16.3851V18.0443C61.6391 21.3283 63.7431 23.3332 67.1578 23.3332C69.4343 23.3332 71.0209 22.5036 72.0212 20.7752L70.2621 19.7382C69.5033 20.7406 68.3305 21.3283 67.1578 21.3283C65.4332 21.3283 64.3984 20.2567 64.3984 18.4591V17.9752H72.3661V16.0048C72.3661 12.9283 70.2966 10.8888 67.0888 10.8888ZM69.7792 16.1431H64.3984V15.8666C64.3984 13.8962 65.3642 12.8246 67.0888 12.8246C68.7789 12.8246 69.7792 13.8962 69.7792 15.6937V16.1431ZM113.515 9.22952V6.94804H103.616V9.22952H107.1V20.8098H103.616V23.0912H113.515V20.8098H110.032V9.22952H113.515ZM38.4949 6.60236C34.0799 6.60236 31.3205 9.36779 31.3205 13.7925V16.2122C31.3205 20.6715 34.0799 23.4024 38.4949 23.4024C42.9099 23.4024 45.6692 20.6369 45.6692 16.2122V13.7925C45.6692 9.36779 42.9099 6.60236 38.4949 6.60236ZM42.7029 16.3851C42.7029 19.3233 41.1853 21.0172 38.4949 21.0172C35.8045 21.0172 34.2868 19.3579 34.2868 16.3851V13.6542C34.2868 10.7159 35.839 9.02211 38.4949 9.02211C41.1508 9.02211 42.7029 10.7159 42.7029 13.6542V16.3851ZM54.6717 10.8888C53.154 10.8888 51.8778 11.511 51.188 12.548L50.8775 13.032V11.1653H48.1527V27.1703H51.0155V21.3974L51.3259 21.8468C51.9813 22.8147 53.223 23.3678 54.7062 23.3678C57.1896 23.3678 59.673 21.7431 59.673 18.148V16.1085C59.6385 13.5159 58.0864 10.8888 54.6717 10.8888ZM56.7757 18.0098C56.7757 19.9456 55.6719 21.1209 53.8439 21.1209C52.1537 21.1209 50.981 19.8764 50.981 18.0443V16.2468C50.981 14.4147 52.1537 13.1357 53.8439 13.1357C55.6375 13.1357 56.7412 14.311 56.7412 16.2468L56.7757 18.0098ZM93.0269 6.94804L87.2667 23.0912H90.1641L91.2678 19.6345H97.8903V19.669L98.994 23.0912H101.891L96.0967 6.94804H93.0269ZM91.9921 17.353L94.6135 9.19495L97.2004 17.353H91.9921Z" fill="#546078"/>
<path d="M25.7322 11.4419C26.3531 9.54071 26.1461 7.43207 25.1458 5.70367C23.6282 3.04194 20.5584 1.6938 17.5576 2.31602C16.2469 0.829599 14.3153 -3.05176e-05 12.3148 -3.05176e-05C9.24498 -3.05176e-05 6.55459 1.97034 5.58881 4.87404C3.62276 5.28886 1.93265 6.49873 0.93238 8.2617C-0.585273 10.9234 -0.240352 14.2419 1.79468 16.5234C1.17382 18.4592 1.41527 20.5333 2.41554 22.2617C3.93319 24.9234 7.00299 26.3061 10.0038 25.6494C11.349 27.1358 13.2461 28 15.2466 28C18.3164 28 21.0068 26.0296 21.9726 23.1259C23.9386 22.7111 25.6287 21.5012 26.629 19.7382C28.1467 17.0765 27.8017 13.7234 25.7322 11.4419ZM15.2466 26.1679C14.0049 26.1679 12.8322 25.7531 11.9009 24.958C11.9354 24.9234 12.0388 24.8889 12.0733 24.8543L17.6266 21.6395C17.9025 21.4666 18.075 21.1901 18.075 20.8444V12.9975L20.4204 14.3456C20.4549 14.3456 20.4549 14.3802 20.4549 14.4148V20.9135C20.4894 23.8173 18.1439 26.1679 15.2466 26.1679ZM4.00218 21.3629C3.38132 20.2913 3.17437 19.0469 3.38132 17.837C3.41581 17.8716 3.4848 17.9061 3.55378 17.9407L9.10701 21.1555C9.38295 21.3284 9.72787 21.3284 10.0038 21.1555L16.7987 17.2148V19.9456C16.7987 19.9802 16.7987 20.0148 16.7643 20.0148L11.142 23.2642C8.65861 24.716 5.45085 23.8518 4.00218 21.3629ZM2.55351 9.19503C3.17437 8.12343 4.14015 7.32836 5.27839 6.87898V13.516C5.27839 13.8271 5.45085 14.1382 5.72678 14.3111L12.5217 18.2518L10.1763 19.6C10.1418 19.6 10.1073 19.6345 10.1073 19.6L4.48507 16.3506C1.93265 14.8987 1.10484 11.6839 2.55351 9.19503ZM21.8691 13.6889L15.0741 9.74812L17.4196 8.39997C17.4541 8.39997 17.4886 8.3654 17.4886 8.39997L23.1108 11.6494C25.6287 13.1012 26.4565 16.316 25.0079 18.8049C24.387 19.8765 23.4212 20.6716 22.283 21.0864V14.4839C22.3175 14.1728 22.145 13.8617 21.8691 13.6889ZM24.1801 10.1629C24.1456 10.1284 24.0766 10.0938 24.0076 10.0592L18.4544 6.84441C18.1784 6.67157 17.8335 6.67157 17.5576 6.84441L10.7626 10.7852V8.05429C10.7626 8.01972 10.7626 7.98515 10.7971 7.98515L16.4193 4.73577C18.9373 3.28392 22.1105 4.14812 23.5592 6.67157C24.1801 7.70861 24.387 8.95306 24.1801 10.1629ZM9.48642 15.0024L7.14096 13.6543C7.10647 13.6543 7.10647 13.6197 7.10647 13.5852V7.08639C7.10647 4.18269 9.45193 1.83207 12.3493 1.83207C13.591 1.83207 14.7637 2.24688 15.695 3.04194C15.6605 3.07651 15.5915 3.11108 15.5225 3.14565L9.96931 6.36046C9.69337 6.5333 9.52092 6.80985 9.52092 7.15553V15.0024H9.48642ZM10.7626 12.237L13.7979 10.474L16.8332 12.237V15.7284L13.7979 17.4913L10.7626 15.7284V12.237Z" fill="#546078"/>
</g>
<defs>
<clipPath id="clip0_3_6238">
<rect width="113.514" height="28" fill="white"/>
</clipPath>
</defs>
</svg>
