<svg width="28" height="28" viewBox="0 0 28 28" fill="none" xmlns="http://www.w3.org/2000/svg">
<path d="M25.6666 12.8333V9.56659C25.6666 8.2598 25.6666 7.6064 25.4123 7.10727C25.1886 6.66823 24.8317 6.31127 24.3926 6.08757C23.8935 5.83325 23.2401 5.83325 21.9333 5.83325H6.06665C4.75986 5.83325 4.10646 5.83325 3.60734 6.08757C3.16829 6.31127 2.81134 6.66823 2.58763 7.10727C2.33331 7.6064 2.33331 8.2598 2.33331 9.56658V13.7666C2.33331 15.0734 2.33331 15.7268 2.58763 16.2259C2.81134 16.6649 3.16829 17.0219 3.60734 17.2456C4.10646 17.4999 4.75986 17.4999 6.06665 17.4999H12.8333M14 11.6666H14.0058M19.8333 11.6666H19.8391M8.16665 11.6666H8.17248M22.4583 19.8333V17.7916C22.4583 16.664 21.5442 15.7499 20.4166 15.7499C19.2891 15.7499 18.375 16.664 18.375 17.7916V19.8333M14.2916 11.6666C14.2916 11.8277 14.1611 11.9583 14 11.9583C13.8389 11.9583 13.7083 11.8277 13.7083 11.6666C13.7083 11.5055 13.8389 11.3749 14 11.3749C14.1611 11.3749 14.2916 11.5055 14.2916 11.6666ZM20.125 11.6666C20.125 11.8277 19.9944 11.9583 19.8333 11.9583C19.6722 11.9583 19.5416 11.8277 19.5416 11.6666C19.5416 11.5055 19.6722 11.3749 19.8333 11.3749C19.9944 11.3749 20.125 11.5055 20.125 11.6666ZM8.45831 11.6666C8.45831 11.8277 8.32773 11.9583 8.16665 11.9583C8.00556 11.9583 7.87498 11.8277 7.87498 11.6666C7.87498 11.5055 8.00556 11.3749 8.16665 11.3749C8.32773 11.3749 8.45831 11.5055 8.45831 11.6666ZM18.2 24.4999H22.6333C23.2867 24.4999 23.6134 24.4999 23.863 24.3728C24.0825 24.2609 24.261 24.0824 24.3728 23.8629C24.5 23.6133 24.5 23.2866 24.5 22.6333V21.6999C24.5 21.0465 24.5 20.7198 24.3728 20.4703C24.261 20.2507 24.0825 20.0723 23.863 19.9604C23.6134 19.8333 23.2867 19.8333 22.6333 19.8333H18.2C17.5466 19.8333 17.2199 19.8333 16.9703 19.9604C16.7508 20.0723 16.5723 20.2507 16.4605 20.4703C16.3333 20.7198 16.3333 21.0465 16.3333 21.6999V22.6333C16.3333 23.2866 16.3333 23.6133 16.4605 23.8629C16.5723 24.0824 16.7508 24.2609 16.9703 24.3728C17.2199 24.4999 17.5466 24.4999 18.2 24.4999Z" stroke="#266464" stroke-width="2" stroke-linecap="round" stroke-linejoin="round"/>
</svg>
