<svg width="24" height="25" viewBox="0 0 24 25" fill="none" xmlns="http://www.w3.org/2000/svg">
<path fill-rule="evenodd" clip-rule="evenodd" d="M12 1.5C5.92487 1.5 1 6.42487 1 12.5C1 18.5751 5.92487 23.5 12 23.5C18.0751 23.5 23 18.5751 23 12.5C23 6.42487 18.0751 1.5 12 1.5ZM9.59974 8.61608C9.5 8.74931 9.5 8.98795 9.5 9.46524V15.5346C9.5 16.0119 9.5 16.2505 9.59974 16.3837C9.68666 16.4998 9.81971 16.5725 9.96438 16.5828C10.1304 16.5947 10.3311 16.4656 10.7326 16.2075L15.4532 13.1728C15.8016 12.9489 15.9758 12.8369 16.0359 12.6945C16.0885 12.5701 16.0885 12.4297 16.0359 12.3053C15.9758 12.1629 15.8016 12.0509 15.4532 11.827L10.7326 8.7923C10.3311 8.5342 10.1304 8.40515 9.96438 8.41701C9.81971 8.42734 9.68666 8.49998 9.59974 8.61608Z" fill="white"/>
</svg>
