<svg width="106" height="28" viewBox="0 0 106 28" fill="none" xmlns="http://www.w3.org/2000/svg">
<g clip-path="url(#clip0_3_6251)">
<path d="M7.37674 9.44533C4.88117 9.44533 3.65201 11.648 3.65201 14.5973V21.9893H0.113525V6.42133H3.57752V10.4533H3.65201C4.39696 7.95199 5.8496 5.97333 8.12169 5.97333C9.72332 5.97333 10.3938 6.53333 10.3938 6.53333L8.79214 9.74399C8.79214 9.74399 8.30792 9.44533 7.37674 9.44533ZM49.9504 11.6107V22.0267H46.5236V12.88C46.5236 10.2667 45.7042 8.88533 43.6183 8.88533C41.458 8.88533 40.4151 10.64 40.4151 14V22.0267H36.9883V12.88C36.9883 10.3787 36.1689 8.88533 34.1203 8.88533C31.7364 8.88533 30.8425 10.976 30.8425 14V22.0267H27.3785V6.42133H30.8425V9.96799H30.8798C31.4012 7.54133 32.8911 6.01066 35.3867 6.01066C37.845 6.01066 39.4466 7.35466 40.0798 9.70666C40.6758 7.42933 42.2029 6.01066 44.5867 6.01066C47.8273 6.01066 49.9504 8.06399 49.9504 11.6107ZM17.3218 5.97333C14.1185 5.97333 12.0699 7.46666 11.1015 10.192L14.044 11.2747C14.5655 9.63199 15.6829 8.69866 17.3963 8.69866C19.2959 8.69866 20.4505 9.55733 20.4505 10.8267C20.4505 12.1333 19.5566 12.432 17.5452 12.768C15.3104 13.1413 9.9468 13.2533 9.9468 17.7707C9.9468 20.4213 12.1444 22.4 15.4594 22.4C17.955 22.4 19.6683 21.392 20.4505 19.488H20.4878V22.0267H23.9145V12.432C23.8773 8.21333 21.7914 5.97333 17.3218 5.97333ZM20.525 14.672C20.525 17.9573 18.9234 20.048 16.3161 20.048C14.491 20.048 13.4108 19.04 13.4108 17.5467C13.4108 16.1653 14.5282 15.1947 16.6886 14.784C18.8861 14.3733 20.0036 13.888 20.525 12.656V14.672ZM62.1674 6.01066C59.5601 6.01066 57.8095 7.46666 57.0646 9.63199V6.42133H53.4143V28H57.0273V18.816H57.0646C57.884 21.168 59.5601 22.4747 62.1674 22.4747C66.3391 22.4747 69.3189 19.04 69.3189 14.1867C69.3189 9.33333 66.3391 6.01066 62.1674 6.01066ZM61.2735 19.5627C58.4055 19.5627 56.8038 17.472 56.8038 14.224C56.8038 10.976 58.5917 8.88533 61.2735 8.88533C63.9553 8.88533 65.7432 11.088 65.7432 14.224C65.7432 17.36 63.9553 19.5627 61.2735 19.5627Z" fill="#546078"/>
<path d="M105.114 21.9147V22.0267H90.9972V21.9147C93.0458 20.7573 94.4239 19.6 95.6904 18.368H101.501L105.114 21.9147ZM101.613 3.50933L98.0369 0H97.9252C97.9252 0 97.9997 6.53333 91.9656 12.5067C86.0806 18.3307 79.1898 18.368 79.1898 18.368V18.48L82.8401 22.064C82.8401 22.064 89.6563 22.1387 95.6531 16.2027C101.65 10.304 101.613 3.50933 101.613 3.50933Z" fill="#546078"/>
</g>
<defs>
<clipPath id="clip0_3_6251">
<rect width="105" height="28" fill="white" transform="translate(0.113525)"/>
</clipPath>
</defs>
</svg>
