<svg width="123" height="32" viewBox="0 0 123 32" fill="none" xmlns="http://www.w3.org/2000/svg">
<g clip-path="url(#clip0_3_6242)">
<path d="M120.303 23.8396C119.24 23.8396 118.408 23.5517 117.814 22.9737C117.22 22.3958 116.923 21.5929 116.923 20.5757V14.2704H115.015V11.9102H116.934L117.275 8.7576H119.53V11.9102H122.464V14.2747H119.52V20.2331C119.514 20.5588 119.635 20.8741 119.859 21.1116C119.973 21.2328 120.112 21.3281 120.267 21.3908C120.421 21.4535 120.587 21.4823 120.754 21.4752H122.454V23.8396H120.303Z" fill="#546078"/>
<path d="M108.828 24.0625C107.41 24.0625 106.27 23.7248 105.406 23.0495C104.549 22.3801 103.96 21.4253 103.749 20.3593H106.569C106.692 20.769 106.966 21.1172 107.335 21.3345C107.788 21.5955 108.306 21.723 108.828 21.7023C110.332 21.7023 111.088 21.2819 111.088 20.4706C111.088 20.0657 110.852 19.7568 110.378 19.5438C109.829 19.3084 109.253 19.1371 108.664 19.0331C107.995 18.9049 107.323 18.7388 106.64 18.5371C105.962 18.3369 105.359 17.937 104.911 17.3895C104.441 16.829 104.205 16.092 104.204 15.1785C104.196 14.6985 104.3 14.2233 104.507 13.7898C104.714 13.3564 105.018 12.9764 105.396 12.6795C106.193 12.0154 107.299 11.684 108.713 11.6854C110.126 11.6868 111.25 12.0021 112.082 12.6312C112.91 13.2557 113.479 14.1624 113.681 15.1785H110.854C110.553 14.4324 109.844 14.0519 108.719 14.0498C107.512 14.0498 106.91 14.4261 106.91 15.1785C106.912 15.351 106.96 15.5198 107.049 15.6675C107.139 15.8153 107.266 15.9367 107.418 16.0192C107.804 16.2521 108.234 16.4051 108.681 16.4689C109.241 16.5639 109.794 16.6916 110.338 16.8515C110.903 17.0127 111.457 17.2107 111.996 17.4442C112.521 17.6813 112.966 18.0671 113.274 18.5539C113.632 19.1256 113.81 19.7909 113.786 20.4643C113.797 20.9658 113.688 21.4627 113.469 21.9138C113.249 22.3648 112.924 22.7571 112.522 23.0579C111.684 23.7262 110.453 24.0611 108.828 24.0625Z" fill="#546078"/>
<path d="M100.419 12.8791C99.55 12.0986 98.3328 11.7084 96.7674 11.7084C95.5193 11.7084 94.4727 12.044 93.6275 12.7151C92.7932 13.3696 92.2042 14.2855 91.9554 15.315H94.6215C94.7571 14.9251 95.0157 14.5895 95.3585 14.3587C95.7747 14.0802 96.2689 13.9411 96.7695 13.9615C97.5024 13.9615 98.0794 14.1506 98.5027 14.5247C98.7175 14.7242 98.8855 14.9685 98.9947 15.2403C99.1039 15.512 99.1517 15.8045 99.1345 16.0968V16.6664H96.083C94.679 16.6664 93.5762 17.0202 92.7746 17.7278C92.3913 18.0543 92.0852 18.4615 91.8784 18.9201C91.6716 19.3787 91.5691 19.8773 91.5784 20.3802C91.564 20.8772 91.6559 21.3716 91.848 21.8304C92.0401 22.2892 92.328 22.7019 92.6924 23.041C93.4337 23.7415 94.4165 24.0918 95.6407 24.0918C96.3991 24.1091 97.1496 23.9349 97.8225 23.5853C98.3636 23.3212 98.8212 22.9132 99.145 22.4062H99.2545L99.4756 23.8774H101.731V16.101C101.727 14.7363 101.29 13.6623 100.419 12.8791ZM99.1366 19.2515C99.1523 19.6054 99.0896 19.9583 98.9531 20.2852C98.8166 20.6122 98.6096 20.9051 98.3469 21.1431C97.8232 21.6069 97.1086 21.8395 96.203 21.8409C95.5439 21.8409 95.0384 21.6895 94.691 21.3953C94.5221 21.2584 94.3869 21.0848 94.2956 20.8877C94.2044 20.6906 94.1595 20.4753 94.1645 20.2583C94.1645 19.2074 94.8531 18.6862 96.203 18.6862H99.1366V19.2515Z" fill="#546078"/>
<path d="M84.8102 24.0877C83.0988 24.0877 81.7314 23.5399 80.7079 22.4442C79.6844 21.3485 79.172 19.8324 79.1705 17.896C79.1705 15.9638 79.6809 14.4492 80.7016 13.3521C81.7222 12.255 83.0918 11.7071 84.8102 11.7085C86.2058 11.7085 87.3626 12.0798 88.2808 12.8224C89.1816 13.5398 89.8233 14.5308 90.1087 15.6451H87.5206C87.2672 15.1514 86.8771 14.7407 86.3966 14.462C85.9161 14.1833 85.3654 14.0482 84.8102 14.073C84.3889 14.0579 83.9697 14.1401 83.5854 14.3133C83.2011 14.4864 82.8621 14.7458 82.5948 15.0713C82.0332 15.7396 81.7524 16.6812 81.7524 17.896C81.7524 19.1108 82.0332 20.0524 82.5948 20.7207C82.8617 21.0469 83.2005 21.3071 83.5848 21.4811C83.9691 21.655 84.3885 21.7379 84.8102 21.7233C85.3655 21.747 85.916 21.6113 86.3964 21.3323C86.8768 21.0533 87.2669 20.6426 87.5206 20.1491H90.1066C89.8219 21.2642 89.1801 22.2561 88.2787 22.9738C87.3633 23.7164 86.2072 24.0877 84.8102 24.0877Z" fill="#546078"/>
<path d="M69.5526 28.3731L71.3574 23.8669L66.5117 11.9375H69.3315L72.602 20.3802H72.7115L75.9863 11.9375H78.8061L72.2609 28.3731H69.5526Z" fill="#546078"/>
<path d="M64.073 12.8791C63.204 12.0986 61.9867 11.7084 60.4213 11.7084C59.1725 11.7084 58.1238 12.0426 57.2814 12.7151C56.4466 13.3692 55.8575 14.2852 55.6093 15.315H58.2754C58.4099 14.9245 58.6688 14.5886 59.0125 14.3587C59.4284 14.0797 59.9227 13.9405 60.4234 13.9615C61.1563 13.9615 61.734 14.1492 62.1566 14.5247C62.3719 14.7238 62.5402 14.9681 62.6495 15.2399C62.7587 15.5118 62.8062 15.8045 62.7884 16.0968V16.6664H59.7348C58.3308 16.6664 57.228 17.0202 56.4264 17.7278C56.0427 18.054 55.7365 18.4611 55.5296 18.9198C55.3227 19.3785 55.2205 19.8773 55.2302 20.3802C55.2151 20.8771 55.3065 21.3715 55.4983 21.8304C55.69 22.2892 55.9777 22.702 56.3421 23.041C57.0834 23.7415 58.0662 24.0918 59.2904 24.0918C60.0488 24.1091 60.7993 23.9349 61.4722 23.5853C62.0133 23.3212 62.4709 22.9132 62.7947 22.4062H62.9042L63.1253 23.8774H65.3787V16.101C65.3787 14.7363 64.9435 13.6623 64.073 12.8791ZM62.7884 19.2515C62.8044 19.6054 62.7419 19.9584 62.6053 20.2854C62.4688 20.6124 62.2617 20.9052 61.9987 21.1431C61.4764 21.6083 60.7618 21.8409 59.8548 21.8409C59.1957 21.8409 58.6881 21.6916 58.3428 21.3953C58.1742 21.2582 58.0391 21.0845 57.9479 20.8875C57.8566 20.6905 57.8116 20.4753 57.8163 20.2583C57.8233 19.2116 58.5028 18.6876 59.8548 18.6862H62.7884V19.2515Z" fill="#546078"/>
<path d="M49.4453 17.896C49.8473 17.7887 50.2359 17.6365 50.6036 17.442C51.0326 17.2074 51.4338 16.9254 51.7997 16.6013C52.242 16.195 52.583 15.6912 52.7958 15.1301C53.0521 14.4711 53.1787 13.7689 53.1686 13.062C53.1686 11.5614 52.6884 10.3592 51.7281 9.45543C50.7678 8.55169 49.5183 8.10121 47.9796 8.10402H41.4365V23.867H44.2563V18.0179H46.3959L50.4604 23.867H53.6192L49.4453 17.896ZM44.2563 15.5252V10.5862H47.75C48.5503 10.5862 49.1821 10.8026 49.6454 11.2356C50.1087 11.6686 50.3417 12.2753 50.3445 13.0557C50.3445 13.8361 50.1101 14.4442 49.6412 14.88C49.1256 15.3281 48.456 15.5594 47.7732 15.5252H44.2563Z" fill="#546078"/>
<path fill-rule="evenodd" clip-rule="evenodd" d="M32.1327 15.9834L30.4858 17.627L24.2375 11.3911V8.1019L32.1327 15.9834ZM16.3382 0.220398L14.6914 1.86395L20.9397 8.0998H24.2354L16.3382 0.220398ZM12.8023 3.75552L11.1534 5.40117L13.8658 8.10821H17.1616L12.8023 3.75552ZM24.2354 15.1658V18.455L26.9479 21.1621L28.5968 19.5164L24.2354 15.1658ZM23.292 21.2819L24.2354 20.3403H11.9789V8.1019L11.0355 9.04348L9.26649 7.27802L7.61334 8.92578L9.38232 10.6912L8.43886 11.6328V13.5244L5.72643 10.8173L4.07749 12.463L8.43886 16.8157V20.5694L2.19268 14.3399L0.543739 15.9855L16.3382 31.7485L17.9871 30.1029L11.7389 23.867H15.5148L19.8762 28.2197L21.5251 26.5741L18.8127 23.867H20.708L21.6515 22.9254L23.4204 24.6909L25.0694 23.0452L23.292 21.2819Z" fill="#546078"/>
</g>
<defs>
<clipPath id="clip0_3_6242">
<rect width="121.6" height="32" fill="white" transform="translate(0.513535)"/>
</clipPath>
</defs>
</svg>
