<svg width="28" height="28" viewBox="0 0 28 28" fill="none" xmlns="http://www.w3.org/2000/svg">
<g clip-path="url(#clip0_3_6210)">
<path d="M14 28C21.732 28 28 21.732 28 14C28 6.26801 21.732 0 14 0C6.26801 0 0 6.26801 0 14C0 21.732 6.26801 28 14 28Z" fill="#F0F0F0"/>
<path d="M2.89407 5.47653C1.79436 6.90732 0.965136 8.55642 0.4823 10.3479H7.76547L2.89407 5.47653Z" fill="#0052B4"/>
<path d="M27.5177 10.3479C27.0349 8.55648 26.2056 6.90738 25.106 5.47659L20.2347 10.3479H27.5177Z" fill="#0052B4"/>
<path d="M0.4823 17.6523C0.96519 19.4437 1.79442 21.0928 2.89407 22.5235L7.76531 17.6523H0.4823Z" fill="#0052B4"/>
<path d="M22.5235 2.89413C21.0927 1.79442 19.4437 0.96519 17.6522 0.4823V7.76542L22.5235 2.89413Z" fill="#0052B4"/>
<path d="M5.4765 25.1059C6.90729 26.2056 8.55639 27.0348 10.3478 27.5177V20.2346L5.4765 25.1059Z" fill="#0052B4"/>
<path d="M10.3478 0.4823C8.55634 0.96519 6.90724 1.79442 5.4765 2.89407L10.3478 7.76536V0.4823Z" fill="#0052B4"/>
<path d="M17.6522 27.5177C19.4437 27.0348 21.0928 26.2056 22.5235 25.1059L17.6522 20.2346V27.5177Z" fill="#0052B4"/>
<path d="M20.2347 17.6523L25.106 22.5236C26.2056 21.0929 27.0349 19.4437 27.5177 17.6523H20.2347Z" fill="#0052B4"/>
<path d="M27.8815 12.1739H15.8262H15.8261V0.118508C15.2283 0.0406875 14.6189 0 14 0C13.381 0 12.7717 0.0406875 12.1739 0.118508V12.1738V12.1739H0.118508C0.0406875 12.7717 0 13.3811 0 14C0 14.619 0.0406875 15.2283 0.118508 15.8261H12.1738H12.1739V27.8815C12.7717 27.9593 13.381 28 14 28C14.6189 28 15.2283 27.9594 15.8261 27.8815V15.8262V15.8261H27.8815C27.9593 15.2283 28 14.619 28 14C28 13.3811 27.9593 12.7717 27.8815 12.1739Z" fill="#D80027"/>
<path d="M17.6522 17.6522L23.8995 23.8995C24.1868 23.6123 24.4609 23.312 24.7224 23.0007L19.3739 17.6522H17.6522V17.6522Z" fill="#D80027"/>
<path d="M10.3478 17.6523H10.3477L4.10046 23.8995C4.38768 24.1868 4.68797 24.4609 4.99925 24.7224L10.3478 19.3738V17.6523Z" fill="#D80027"/>
<path d="M10.3478 10.3479V10.3478L4.10053 4.10046C3.8132 4.38768 3.5391 4.68797 3.27759 4.99925L8.62619 10.3479H10.3478V10.3479Z" fill="#D80027"/>
<path d="M17.6522 10.3479L23.8996 4.10053C23.6123 3.8132 23.312 3.53911 23.0008 3.27765L17.6522 8.62625V10.3479Z" fill="#D80027"/>
</g>
<defs>
<clipPath id="clip0_3_6210">
<rect width="28" height="28" fill="white"/>
</clipPath>
</defs>
</svg>
