<svg width="28" height="28" viewBox="0 0 28 28" fill="none" xmlns="http://www.w3.org/2000/svg">
<path d="M6.20232 22.6781C6.91204 21.006 8.56905 19.8333 10.5 19.8333H17.5C19.4309 19.8333 21.0879 21.006 21.7976 22.6781M18.6666 11.0833C18.6666 13.6606 16.5773 15.7499 14 15.7499C11.4227 15.7499 9.33331 13.6606 9.33331 11.0833C9.33331 8.50592 11.4227 6.41659 14 6.41659C16.5773 6.41659 18.6666 8.50592 18.6666 11.0833ZM25.6666 13.9999C25.6666 20.4432 20.4433 25.6666 14 25.6666C7.55666 25.6666 2.33331 20.4432 2.33331 13.9999C2.33331 7.5566 7.55666 2.33325 14 2.33325C20.4433 2.33325 25.6666 7.5566 25.6666 13.9999Z" stroke="#266464" stroke-width="2" stroke-linecap="round" stroke-linejoin="round"/>
</svg>
